<svg width="26" height="31" viewBox="0 0 26 31" fill="none" xmlns="http://www.w3.org/2000/svg">
<g filter="url(#filter0_d_2003_184)">
<path d="M20.8978 16H8.89778C7.96781 16 7.50282 16 7.12132 16.1022C6.08604 16.3796 5.2774 17.1883 5 18.2235" stroke="#1C274D" stroke-width="1.5"/>
<path d="M8 16V2.5" stroke="#1C274D" stroke-width="1.5" stroke-linecap="round"/>
<path d="M11 22C8.17157 22 6.75736 22 5.87868 21.1213C5 20.2426 5 18.8284 5 16V8C5 5.17157 5 3.75736 5.87868 2.87868C6.75736 2 8.17157 2 11 2H15C17.8284 2 19.2426 2 20.1213 2.87868C21 3.75736 21 5.17157 21 8M15 22C17.8284 22 19.2426 22 20.1213 21.1213C21 20.2426 21 18.8284 21 16V12" stroke="#1C274D" stroke-width="1.5" stroke-linecap="round"/>
<path d="M17 9.50002H14.5M14.5 9.50002L12 9.50002M14.5 9.50002L14.5 7M14.5 9.50002L14.5 12" stroke="#1C274D" stroke-width="1.5" stroke-linecap="round"/>
</g>
<defs>
<filter id="filter0_d_2003_184" x="-4" y="0" width="33" height="33" filterUnits="userSpaceOnUse" color-interpolation-filters="sRGB">
<feFlood flood-opacity="0" result="BackgroundImageFix"/>
<feColorMatrix in="SourceAlpha" type="matrix" values="0 0 0 0 0 0 0 0 0 0 0 0 0 0 0 0 0 0 127 0" result="hardAlpha"/>
<feOffset dy="4"/>
<feGaussianBlur stdDeviation="2"/>
<feComposite in2="hardAlpha" operator="out"/>
<feColorMatrix type="matrix" values="0 0 0 0 0 0 0 0 0 0 0 0 0 0 0 0 0 0 0.25 0"/>
<feBlend mode="normal" in2="BackgroundImageFix" result="effect1_dropShadow_2003_184"/>
<feBlend mode="normal" in="SourceGraphic" in2="effect1_dropShadow_2003_184" result="shape"/>
</filter>
</defs>
</svg>
