<svg width="30" height="38" viewBox="0 0 30 38" fill="none" xmlns="http://www.w3.org/2000/svg">
<g filter="url(#filter0_d_2003_184)">
<path d="M10 23.9983C7.82497 23.9862 6.64706 23.8897 5.87868 23.1213C5 22.2426 5 20.8284 5 18L5 14C5 11.1716 5 9.75736 5.87868 8.87868C6.75736 8 8.17157 8 11 8L19 8C21.8284 8 23.2426 8 24.1213 8.87868C24.6112 9.36857 24.828 10.0249 24.9239 11M19.5 23.9983L20.3197 23.9957C22.2921 23.9748 23.3915 23.8512 24.1213 23.1213C25 22.2426 25 20.8284 25 18V15" stroke="#1C274D" stroke-width="1.5" stroke-linecap="round"/>
<path d="M12 12L18 12" stroke="#1C274D" stroke-width="1.5" stroke-linecap="round"/>
<path d="M10 15.5H12M20 15.5H15.5" stroke="#1C274D" stroke-width="1.5" stroke-linecap="round"/>
<path d="M14.3539 19.9454C14.9931 19.4007 15.9333 19.4007 16.5725 19.9454C16.8465 20.1789 17.1871 20.32 17.5458 20.3486C18.383 20.4154 19.0479 21.0802 19.1147 21.9174C19.1433 22.2762 19.2844 22.6168 19.5178 22.8907C20.0626 23.53 20.0626 24.4702 19.5178 25.1094C19.2844 25.3833 19.1433 25.7239 19.1147 26.0827C19.0479 26.9199 18.383 27.5847 17.5458 27.6515C17.1871 27.6802 16.8465 27.8212 16.5725 28.0547C15.9333 28.5994 14.9931 28.5994 14.3539 28.0547C14.0799 27.8212 13.7393 27.6802 13.3806 27.6515C12.5433 27.5847 11.8785 26.9199 11.8117 26.0827C11.7831 25.7239 11.642 25.3833 11.4086 25.1094C10.8638 24.4702 10.8638 23.53 11.4086 22.8907C11.642 22.6168 11.7831 22.2762 11.8117 21.9174C11.8785 21.0802 12.5433 20.4154 13.3806 20.3486C13.7393 20.32 14.0799 20.1789 14.3539 19.9454Z" stroke="#1C274D" stroke-width="1.5"/>
<path d="M14 24.2L14.8571 25L17 23" stroke="#1C274D" stroke-width="1.5" stroke-linecap="round" stroke-linejoin="round"/>
</g>
<defs>
<filter id="filter0_d_2003_184" x="-4" y="0" width="38" height="38" filterUnits="userSpaceOnUse" color-interpolation-filters="sRGB">
<feFlood flood-opacity="0" result="BackgroundImageFix"/>
<feColorMatrix in="SourceAlpha" type="matrix" values="0 0 0 0 0 0 0 0 0 0 0 0 0 0 0 0 0 0 127 0" result="hardAlpha"/>
<feOffset dy="4"/>
<feGaussianBlur stdDeviation="2"/>
<feComposite in2="hardAlpha" operator="out"/>
<feColorMatrix type="matrix" values="0 0 0 0 0 0 0 0 0 0 0 0 0 0 0 0 0 0 0.25 0"/>
<feBlend mode="normal" in2="BackgroundImageFix" result="effect1_dropShadow_2003_184"/>
<feBlend mode="normal" in="SourceGraphic" in2="effect1_dropShadow_2003_184" result="shape"/>
</filter>
</defs>
</svg>
