<svg width="30" height="30" viewBox="0 0 30 30" fill="none" xmlns="http://www.w3.org/2000/svg">
<path d="M21 9V13.8528C21 14.1429 21 14.2879 20.9051 14.3465C20.8103 14.4051 20.6806 14.3403 20.4211 14.2106L19.1789 13.5894C19.0911 13.5456 19.0472 13.5236 19 13.5236C18.9528 13.5236 18.9089 13.5456 18.8211 13.5894L17.5789 14.2106C17.3194 14.3403 17.1897 14.4051 17.0949 14.3465C17 14.2879 17 14.1429 17 13.8528V9" stroke="#1C274C" stroke-width="1.5"/>
<path d="M25 14.7979C25 12.1655 25 10.8494 24.2305 9.99383C24.1598 9.91514 24.0849 9.84024 24.0062 9.76946C23.1506 9 21.8345 9 19.2021 9H18.8284C17.6747 9 17.0979 9 16.5604 8.84678C16.2651 8.7626 15.9804 8.64471 15.7121 8.49543C15.2237 8.22367 14.8158 7.81578 14 7L13.4497 6.44975C13.1763 6.17633 13.0396 6.03961 12.8959 5.92051C12.2765 5.40704 11.5167 5.09229 10.7156 5.01738C10.5298 5 10.3364 5 9.94975 5C9.06722 5 8.62595 5 8.25839 5.06935C6.64031 5.37464 5.37464 6.64031 5.06935 8.25839C5 8.62595 5 9.06722 5 9.94975M24.9913 19C24.9554 21.4796 24.7715 22.8853 23.8284 23.8284C22.6569 25 20.7712 25 17 25H13C9.22876 25 7.34315 25 6.17157 23.8284C5 22.6569 5 20.7712 5 17V14" stroke="#1C274C" stroke-width="1.5" stroke-linecap="round"/>
</svg>
