<svg width="30" height="30" viewBox="0 0 30 30" fill="none" xmlns="http://www.w3.org/2000/svg">
<path d="M11 19C11 21.8284 11 23.2426 11.8787 24.1213C12.52 24.7626 13.4466 24.9359 15 24.9827M11 11C11 8.17157 11 6.75736 11.8787 5.87868C12.7574 5 14.1716 5 17 5H18C20.8284 5 22.2426 5 23.1213 5.87868C24 6.75736 24 8.17157 24 11V13V17V19C24 21.8284 24 23.2426 23.1213 24.1213C22.3529 24.8897 21.175 24.9862 19 24.9983" stroke="#1C274C" stroke-width="1.5" stroke-linecap="round"/>
<path d="M6 12.5V17.5C6 19.857 6 21.0355 6.73223 21.7678C7.46447 22.5 8.64298 22.5 11 22.5M6.73223 8.23223C7.46447 7.5 8.64298 7.5 11 7.5" stroke="#1C274C" stroke-width="1.5" stroke-linecap="round"/>
<path d="M9 15L18 15M18 15L15.5 17.5M18 15L15.5 12.5" stroke="#1C274C" stroke-width="1.5" stroke-linecap="round" stroke-linejoin="round"/>
</svg>
