<svg width="30" height="30" viewBox="0 0 30 30" fill="none" xmlns="http://www.w3.org/2000/svg">
<path d="M11.6708 7C12.0826 5.83481 13.1939 5 14.5001 5C15.8063 5 16.9175 5.83481 17.3294 7" stroke="#1C274C" stroke-width="1.5" stroke-linecap="round"/>
<path d="M23.0001 9H6" stroke="#1C274C" stroke-width="1.5" stroke-linecap="round"/>
<path d="M20.8736 18.3991C20.6966 21.054 20.6081 22.3815 19.7431 23.1907C18.8781 24 17.5477 24 14.8869 24H14.1135C11.4527 24 10.1223 24 9.25731 23.1907C8.3923 22.3815 8.3038 21.054 8.12681 18.3991L7.66687 11.5M21.3335 11.5L21.1335 14.5" stroke="#1C274C" stroke-width="1.5" stroke-linecap="round"/>
<path d="M12.0001 14L12.5001 19" stroke="#1C274C" stroke-width="1.5" stroke-linecap="round"/>
<path d="M17.0001 14L16.5001 19" stroke="#1C274C" stroke-width="1.5" stroke-linecap="round"/>
</svg>
