<svg width="32" height="34" viewBox="0 0 32 34" fill="none" xmlns="http://www.w3.org/2000/svg">
<g filter="url(#filter0_d_2003_184)">
<circle cx="16" cy="10" r="4" stroke="#1C274C" stroke-width="1.5"/>
<path d="M22 13C23.6569 13 25 11.8807 25 10.5C25 9.11929 23.6569 8 22 8" stroke="#1C274C" stroke-width="1.5" stroke-linecap="round"/>
<path d="M10 13C8.34315 13 7 11.8807 7 10.5C7 9.11929 8.34315 8 10 8" stroke="#1C274C" stroke-width="1.5" stroke-linecap="round"/>
<path d="M21.1973 19C21.7078 19.5883 22 20.2714 22 21C22 23.2091 19.3137 25 16 25C12.6863 25 10 23.2091 10 21C10 18.7909 12.6863 17 16 17C16.3407 17 16.6748 17.0189 17 17.0553" stroke="#1C274C" stroke-width="1.5" stroke-linecap="round"/>
<path d="M24 23C25.7542 22.6153 27 21.6411 27 20.5C27 19.3589 25.7542 18.3847 24 18" stroke="#1C274C" stroke-width="1.5" stroke-linecap="round"/>
<path d="M8 23C6.24575 22.6153 5 21.6411 5 20.5C5 19.3589 6.24575 18.3847 8 18" stroke="#1C274C" stroke-width="1.5" stroke-linecap="round"/>
</g>
<defs>
<filter id="filter0_d_2003_184" x="-3" y="0" width="38" height="38" filterUnits="userSpaceOnUse" color-interpolation-filters="sRGB">
<feFlood flood-opacity="0" result="BackgroundImageFix"/>
<feColorMatrix in="SourceAlpha" type="matrix" values="0 0 0 0 0 0 0 0 0 0 0 0 0 0 0 0 0 0 127 0" result="hardAlpha"/>
<feOffset dy="4"/>
<feGaussianBlur stdDeviation="2"/>
<feComposite in2="hardAlpha" operator="out"/>
<feColorMatrix type="matrix" values="0 0 0 0 0 0 0 0 0 0 0 0 0 0 0 0 0 0 0.25 0"/>
<feBlend mode="normal" in2="BackgroundImageFix" result="effect1_dropShadow_2003_184"/>
<feBlend mode="normal" in="SourceGraphic" in2="effect1_dropShadow_2003_184" result="shape"/>
</filter>
</defs>
</svg>
